<?xml version="1.0" standalone="no"?>
<!DOCTYPE svg PUBLIC "-//W3C//DTD SVG 20010904//EN"
 "http://www.w3.org/TR/2001/REC-SVG-20010904/DTD/svg10.dtd">
<svg version="1.0" xmlns="http://www.w3.org/2000/svg"
 width="1024.000000pt" height="1024.000000pt" viewBox="0 0 1024.000000 1024.000000"
 preserveAspectRatio="xMidYMid meet">

<g transform="translate(0.000000,1024.000000) scale(0.100000,-0.100000)"
fill="#000000" stroke="none">
<path d="M0 5120 l0 -5120 5120 0 5120 0 0 5120 0 5120 -5120 0 -5120 0 0
-5120z m3951 3689 c66 -31 109 -82 109 -128 0 -36 -26 -81 -46 -81 -8 0 -14
-4 -14 -9 0 -35 -242 -39 -350 -6 -97 30 -160 63 -170 91 -18 47 -12 84 19
113 46 43 82 50 246 48 139 -2 154 -4 206 -28z m-1613 -185 c17 -11 22 -25 22
-56 0 -36 -6 -47 -43 -82 -86 -81 -293 -133 -355 -90 -16 11 -22 25 -22 52 0
30 8 44 53 87 40 39 69 57 127 77 88 31 183 36 218 12z m2622 -54 c113 -17
221 -45 275 -69 11 -6 42 -19 69 -30 53 -23 178 -101 211 -133 78 -74 312
-267 393 -323 62 -44 183 -122 212 -138 14 -8 43 -24 65 -37 82 -47 318 -160
335 -160 5 0 21 -6 37 -14 15 -8 85 -42 155 -76 280 -135 484 -312 649 -565
25 -38 60 -92 78 -118 105 -161 161 -302 161 -408 0 -154 -99 -304 -227 -345
-94 -30 -238 -18 -338 30 -104 49 -222 110 -235 121 -8 7 -37 25 -65 41 -67
38 -269 242 -327 329 -72 109 -127 224 -164 345 -21 70 -70 198 -107 282 -10
21 -17 42 -17 48 0 5 -4 10 -8 10 -5 0 -15 15 -24 33 -30 63 -113 172 -187
245 -141 139 -285 221 -531 301 -197 64 -319 106 -355 121 -22 10 -76 33 -120
51 -123 51 -266 127 -298 157 -35 34 -67 103 -67 147 0 39 30 114 54 134 53
45 179 52 376 21z m965 -78 c55 -18 107 -41 190 -85 17 -9 52 -36 79 -59 45
-41 49 -47 50 -92 1 -39 -3 -51 -23 -67 -13 -10 -33 -19 -46 -19 -45 0 -255
84 -255 102 0 4 -6 8 -13 8 -20 0 -96 58 -154 117 -56 57 -67 93 -35 113 24
15 134 5 207 -18z m-2665 -2 c189 -36 345 -119 493 -264 64 -62 288 -193 417
-242 225 -87 335 -117 605 -164 66 -12 157 -30 201 -41 45 -10 89 -19 98 -19
26 0 171 -66 241 -109 87 -54 158 -123 253 -246 17 -21 62 -112 85 -171 13
-34 30 -107 37 -162 21 -159 -6 -272 -92 -390 -38 -51 -121 -121 -145 -122 -6
0 -13 -4 -15 -8 -6 -16 -164 -71 -260 -91 -128 -27 -307 -28 -498 -1 -87 12
-198 20 -281 20 -121 0 -148 -3 -221 -26 -108 -34 -188 -83 -268 -164 -76 -78
-119 -139 -221 -313 -96 -165 -90 -156 -120 -202 -38 -59 -126 -152 -173 -184
-99 -66 -249 -80 -409 -36 -177 48 -249 85 -338 174 -78 78 -114 146 -135 249
-54 276 64 525 300 636 104 49 161 58 421 66 196 7 266 13 325 28 212 56 307
151 377 377 26 87 26 338 -1 410 -39 106 -103 201 -174 257 -20 16 -39 33 -42
37 -3 4 -43 26 -90 49 -85 41 -155 62 -345 103 -94 20 -135 30 -264 65 -143
39 -287 137 -309 212 -28 92 -4 177 65 235 59 50 311 69 483 37z m-523 -762
c88 -13 153 -43 200 -93 57 -61 68 -90 68 -195 0 -86 -3 -99 -28 -143 -35 -59
-92 -90 -199 -108 -62 -10 -89 -10 -149 0 -131 24 -202 72 -247 169 -21 47
-24 65 -20 131 7 129 74 211 192 237 70 15 94 16 183 2z m4818 -510 c164 -170
245 -359 183 -425 -29 -31 -57 -29 -104 6 -169 123 -299 382 -238 470 14 20
23 22 58 18 33 -5 51 -17 101 -69z m-1264 -768 c119 -57 190 -140 246 -284 32
-82 33 -224 1 -299 -28 -68 -90 -132 -158 -164 -47 -22 -69 -26 -150 -26 -78
0 -105 4 -150 24 -287 123 -426 442 -277 632 52 66 70 82 132 113 94 49 259
51 356 4z m1820 -324 c50 -22 88 -70 141 -176 106 -217 175 -521 166 -735 -4
-106 -24 -157 -69 -175 -39 -17 -131 -7 -192 20 -26 12 -72 22 -103 23 -54 2
-58 1 -93 -39 -52 -60 -111 -234 -180 -534 -12 -52 -30 -131 -41 -175 -42
-181 -54 -388 -31 -535 21 -132 46 -215 128 -425 59 -149 78 -240 78 -375 0
-162 -33 -289 -118 -459 -51 -102 -154 -211 -215 -229 -108 -33 -189 1 -235
98 -19 39 -22 66 -25 194 -4 152 6 227 57 456 55 243 53 422 -7 535 -32 62
-105 138 -195 205 -45 33 -87 65 -94 70 -7 6 -15 10 -18 10 -3 0 -33 17 -68
38 -34 20 -75 43 -90 51 -15 8 -27 18 -27 23 0 4 -5 8 -11 8 -16 0 -143 104
-183 152 -90 105 -177 266 -212 391 -33 121 -36 152 -32 305 4 111 10 172 22
207 9 28 21 66 27 85 6 19 33 81 61 137 41 83 66 120 135 193 47 49 91 90 99
90 8 0 14 4 14 9 0 5 25 21 56 35 117 56 312 57 484 4 273 -84 319 -91 401
-63 119 42 172 165 167 393 -3 124 9 158 62 184 43 22 96 23 141 4z m-2936
-154 c173 -42 298 -109 450 -241 49 -43 135 -145 135 -160 0 -6 3 -11 8 -11 6
0 22 -30 83 -152 5 -10 20 -59 35 -110 36 -131 42 -292 18 -464 -39 -274 -15
-470 79 -664 12 -25 24 -47 27 -50 3 -3 18 -25 34 -50 38 -57 157 -176 221
-220 28 -18 52 -37 55 -40 3 -4 12 -9 20 -13 50 -22 189 -120 226 -159 47 -49
106 -138 115 -173 5 -16 15 -55 24 -85 22 -74 16 -293 -10 -365 -73 -206 -146
-292 -318 -373 -258 -123 -537 -40 -651 192 -49 101 -65 201 -76 481 -7 154
-15 248 -26 285 -8 30 -18 64 -21 75 -21 82 -127 245 -197 304 -15 14 -33 30
-40 36 -35 33 -125 82 -251 134 -147 61 -618 141 -750 126 -105 -11 -208 -40
-286 -81 -41 -22 -81 -46 -90 -54 -9 -8 -37 -32 -62 -53 -26 -21 -82 -81 -125
-135 -86 -107 -105 -135 -162 -232 -14 -23 -30 -50 -35 -59 -6 -9 -30 -50 -55
-91 -53 -90 -196 -236 -260 -266 -142 -68 -279 -80 -444 -40 -60 15 -114 30
-120 35 -6 5 -22 12 -36 16 -45 14 -164 99 -226 161 -70 71 -126 173 -149 269
-18 81 -19 249 -1 330 45 201 198 359 410 424 65 20 90 21 405 20 320 -1 339
0 406 21 89 28 206 91 254 135 20 19 39 35 43 35 10 0 128 149 128 161 0 5 8
22 17 36 26 39 66 151 103 288 52 192 52 192 119 330 51 103 138 218 222 290
64 55 222 139 278 149 20 3 63 13 96 21 79 19 271 13 380 -13z m-3098 -153
c130 -81 194 -195 196 -349 1 -64 -4 -100 -20 -145 -48 -135 -108 -205 -219
-257 -60 -28 -70 -30 -161 -26 -84 3 -106 7 -156 32 -202 101 -259 370 -123
586 41 65 73 97 140 137 77 47 103 53 214 48 74 -3 99 -8 129 -26z m6297
-1631 c60 -55 78 -198 46 -371 -40 -218 -71 -275 -155 -285 -36 -4 -47 0 -76
26 l-34 31 1 194 c2 180 4 200 29 280 34 109 66 147 123 147 28 0 49 -7 66
-22z m-3633 -1019 c25 -13 53 -31 62 -41 9 -9 20 -18 24 -20 28 -12 86 -105
109 -174 47 -144 18 -288 -79 -387 -67 -68 -134 -102 -241 -123 -81 -16 -91
-16 -178 1 -101 19 -166 47 -213 92 -86 83 -118 141 -137 253 -11 62 -10 73
12 136 33 98 72 152 155 214 28 20 59 39 70 43 11 3 38 13 60 21 31 13 69 15
175 13 119 -4 140 -7 181 -28z m2066 -804 c39 -18 60 -36 83 -71 27 -43 30
-56 30 -131 0 -64 -6 -98 -25 -149 -22 -59 -84 -152 -108 -162 -4 -2 -13 -9
-20 -16 -21 -21 -49 -33 -109 -46 -79 -18 -168 1 -218 46 -66 59 -88 180 -54
295 22 74 48 116 107 171 88 83 217 109 314 63z m744 -446 c18 -18 21 -29 16
-72 -7 -59 -38 -108 -118 -187 -70 -69 -117 -95 -153 -86 -46 11 -52 44 -21
111 36 79 91 161 142 213 50 49 98 57 134 21z"/>
</g>
</svg>
